<svg xmlns="http://www.w3.org/2000/svg" xmlns:xlink="http://www.w3.org/1999/xlink" xml:space="preserve" width="13676" height="3419" version="1.1" style="shape-rendering:geometricPrecision; text-rendering:geometricPrecision; image-rendering:optimizeQuality; fill-rule:evenodd; clip-rule:evenodd"><rect id="backgroundrect" width="100%" height="100%" x="0" y="0" fill="none" stroke="none"/>
 <defs>
  <style type="text/css">
   <![CDATA[
    .fil2 {fill:#FEFEFE}
    .fil1 {fill:#FBBB00}
    .fil0 {fill:#1D478C}
    .fil3 {fill:#FEFEFE;fill-rule:nonzero}
   ]]>
  </style>
 </defs>
 
<g class="currentLayer" style=""><title>Layer 1</title><g id="Слой_x0020_1" class="">
  <metadata id="CorelCorpID_0Corel-Layer" transform="translate(-3661.6298828125,0) translate(3661.6298828125,0) translate(0,-5.4912109375) translate(3.7398681640625,0) translate(-20,0) translate(0,-20) translate(0,-20) translate(0,-20) translate(0,-20) translate(0,-20) translate(0,-20) translate(0,-20) translate(-20,0) translate(-20,0) translate(-20,0) translate(0,-20) translate(0,-20) translate(0,-20) translate(0,-20) translate(0,-20) translate(0,20) translate(0,20) translate(0,20) translate(0,20) translate(0,20) translate(0,20) translate(0,20) translate(0,20) translate(0,20) translate(0,20) translate(0,20) translate(0,-20) translate(0,-20) translate(19.999998092651367,59.999996185302734) translate(-1999.9998779296875,-11819.9990234375) translate(-919.9999389648438,4899.99951171875) translate(-119.99999237060547,-2099.999755859375) "/>
  <polygon class="fil0" points="0,0 13676.7412109375,0 13676.7412109375,3419.189453125 0,3419.189453125 " id="svg_1"/>
  <polygon class="fil1" points="10445.1904296875,0 13676.7412109375,0 13676.7412109375,3419.189453125 10445.1904296875,3419.189453125 " id="svg_2"/>
  <path class="fil2" d="M9508.060056991577,641.9895176696773 l552.3,0 l-908.85,1475.07 c-76.9,118.82 -139.85,202.73 -188.78,265.64 c-41.95,62.91 -90.88,104.87 -139.81,139.81 c-48.96,27.97 -97.89,48.93 -153.83,62.91 c-62.91,13.99 -139.81,13.99 -230.69,13.99 l-181.77,0 l0,-370.51 l90.89,0 c181.76,0 272.64,-34.94 272.64,-118.85 c0,-20.96 -13.98,-48.93 -34.94,-90.88 l-908.89,-1377.18 l552.34,0 l657.16,1104.57 l622.23,-1104.57 zm-7795.21,384.52 l-545.33,0 l0,608.17 l545.33,0 l237.7,0 c76.9,0 139.84,-13.98 188.77,-34.94 c41.95,-20.96 69.89,-55.94 90.88,-97.86 c20.96,-41.95 27.97,-104.87 27.97,-174.79 c0,-104.87 -20.96,-181.76 -62.91,-223.68 c-41.95,-48.96 -125.86,-76.9 -244.71,-76.9 l-237.7,0 zm-1013.73,1572.9 l0,-1957.42 l1013.73,0 l321.6,0 c132.84,0 237.71,7.01 321.58,34.94 c83.91,28.01 153.83,62.95 209.77,118.85 c55.9,55.94 97.85,125.86 125.82,209.74 c20.96,90.88 34.95,195.75 34.95,321.57 c0,167.78 -20.96,300.62 -69.89,398.47 c-48.93,104.87 -118.89,181.77 -223.75,223.72 c-97.86,48.93 -230.7,76.9 -391.5,76.9 l-328.58,0 l-545.33,0 l0,573.23 l-468.4,0 zm5781.72,-1572.9 l-433.45,0 l0,650.13 c0,104.86 -13.98,202.72 -41.95,286.63 c-20.96,83.87 -62.92,167.74 -125.83,251.65 l601.23,0 l594.26,0 l0,-1188.41 l-594.26,0 zm-1125.6,1188.41 c83.91,-83.91 146.82,-174.76 181.77,-272.65 c34.98,-97.85 55.94,-223.68 55.94,-363.49 l0,-936.79 l279.65,0 l608.24,0 l594.26,0 l475.4,0 l0,1572.93 l216.71,0 l0,859.86 l-426.44,0 l0,-475.37 l-859.93,0 l-824.95,0 l0,475.37 l-433.45,0 l0,-859.86 l132.8,0 zm-936.82,384.49 l-873.88,0 c-181.76,0 -321.57,-20.96 -426.44,-62.92 c-104.87,-41.95 -174.79,-111.84 -223.72,-216.7 c-41.95,-97.86 -62.91,-237.71 -62.91,-412.46 l0,-559.24 c0,-188.78 27.93,-335.6 69.89,-440.43 c48.93,-97.89 125.82,-174.79 230.72,-209.73 c111.85,-41.96 258.67,-62.92 461.42,-62.92 l769.01,0 c167.78,0 307.6,20.96 419.47,55.91 c111.84,34.97 195.75,104.86 258.66,202.75 c55.94,97.86 90.89,237.67 90.89,412.46 l-489.39,0 c0,-104.86 -27.97,-174.79 -83.88,-216.74 c-55.93,-41.92 -146.82,-62.88 -272.68,-62.88 l-601.19,0 c-111.88,0 -195.75,6.98 -244.72,20.96 c-55.9,13.98 -90.88,41.92 -111.84,90.88 c-13.98,48.93 -27.97,125.83 -27.97,230.7 l0,482.34 c0,97.89 13.99,174.79 41.96,223.72 c20.96,55.9 62.91,90.88 111.84,104.87 c55.94,20.95 132.83,27.96 223.75,27.96 l608.17,0 c90.92,0 160.81,-7.01 216.75,-20.99 c48.92,-13.98 83.9,-41.95 104.86,-83.87 c27.97,-41.96 34.95,-104.87 34.95,-181.77 l489.39,0 c0,181.77 -20.96,314.57 -55.91,412.46 c-41.95,97.86 -111.87,167.78 -209.77,202.72 c-104.86,41.96 -251.68,62.92 -447.43,62.92 z" id="svg_3"/>
  <path class="fil3" d="M11207.310056991577,2025.1295176696785 l549.81,0 c5.78,75.35 29.9,123.85 72.83,145.07 c42.44,21.22 110.94,32.05 205.45,32.05 c96.45,0 165.43,-4.33 207.88,-12.99 c41.95,-8.67 72.83,-30.76 92.1,-66.25 c19.79,-35.52 29.41,-94.86 29.41,-178.44 c0,-93.98 -5.29,-160.25 -16.37,-198.79 c-10.63,-38.11 -38.11,-64.96 -82.48,-80.99 c-44.36,-16.02 -121.05,-23.81 -230.54,-23.81 c-73.29,0 -125.38,1.29 -156.74,4.32 c-31.83,2.6 -57.39,10.39 -76.69,23.83 c-19.76,13.43 -34.71,35.08 -44.85,64.97 l-497.72,0 l0,-1090.95 l1568.42,0 l0,376.78 l-1070.7,0 l0,374.63 c48.72,-46.34 91.15,-78.82 127.81,-98.75 c36.65,-19.49 79.1,-32.04 126.35,-36.82 c47.75,-5.2 122.03,-7.79 223.31,-7.79 c132.63,0 242.58,12.13 329.88,36.38 c86.82,24.25 156.27,61.93 207.39,113.03 c51.6,50.68 87.78,115.64 109.97,194.46 c21.69,78.82 32.79,177.56 32.79,295.36 c0,155.05 -16.4,279.77 -49.19,373.33 c-32.8,93.97 -82.97,165.87 -151.45,215.24 c-68.48,49.36 -156.25,83.15 -264.3,101.33 c-107.55,18.2 -245.95,27.29 -414.77,27.29 c-141.79,0 -262.36,-8.23 -361.71,-24.69 c-99.34,-16.46 -182.78,-45.91 -250.78,-87.91 c-68.01,-42.01 -120.1,-100.91 -155.8,-176.26 c-35.19,-75.8 -55.44,-173.24 -59.31,-293.63 z" id="svg_4"/>
 </g></g></svg>
